<?xml version="1.0" standalone="no"?>
<!DOCTYPE svg PUBLIC "-//W3C//DTD SVG 20010904//EN"
 "http://www.w3.org/TR/2001/REC-SVG-20010904/DTD/svg10.dtd">
<svg version="1.0" xmlns="http://www.w3.org/2000/svg"
 width="150.000000pt" height="150.000000pt" viewBox="0 0 150.000000 150.000000"
 preserveAspectRatio="xMidYMid meet">

<g transform="translate(0.000000,150.000000) scale(0.100000,-0.100000)"
fill="#333333" opacity="0.25" stroke="none">
<path d="M672 1167 c-55 -17 -118 -88 -132 -148 -15 -60 -2 -138 29 -178 l19
-24 -47 -32 c-25 -18 -46 -37 -45 -43 1 -7 2 -23 3 -36 0 -12 12 -35 27 -51
19 -21 32 -26 55 -23 35 5 36 -4 9 -63 -24 -53 -51 -85 -110 -130 -94 -70
-127 -127 -137 -236 l-6 -63 409 2 409 3 -1 55 c-2 91 -41 164 -125 230 -70
56 -109 102 -128 153 -15 40 -14 57 4 51 45 -18 95 32 95 95 0 23 -9 35 -45
59 l-45 30 20 25 c11 14 25 48 32 76 10 43 9 60 -5 105 -19 61 -76 123 -129
143 -41 14 -112 15 -156 0z m159 -53 c64 -32 101 -117 84 -194 -4 -18 -23 -49
-41 -70 l-35 -38 41 -29 c76 -52 79 -56 70 -80 -8 -20 -17 -23 -61 -23 l-52 0
6 -50 c8 -69 51 -144 111 -194 105 -88 133 -121 146 -175 7 -28 9 -58 6 -66
-5 -13 -55 -15 -361 -15 l-355 0 0 28 c0 37 26 111 48 137 9 11 45 42 79 69
71 55 117 120 132 186 18 78 17 80 -39 80 -44 0 -52 3 -62 25 -6 14 -9 27 -7
28 2 2 28 19 57 37 28 18 52 35 52 37 0 2 -14 22 -32 44 -78 97 -30 251 87
277 45 10 87 5 126 -14z"/>
</g>
</svg>
